<svg xmlns="http://www.w3.org/2000/svg" width="1200" height="675" viewBox="0 0 1200 675" role="img" aria-labelledby="title desc">
  <title id="title">Expense tracking illustration</title>
  <desc id="desc">Expense categories with receipts and monthly spending bars.</desc>
  <rect width="1200" height="675" fill="#f7f8fa"/>
  <rect x="98" y="86" width="1004" height="503" rx="28" fill="#ffffff" stroke="#dbe3ec"/>
  <rect x="160" y="148" width="310" height="380" rx="22" fill="#f8fafc" stroke="#dbe3ec"/>
  <rect x="202" y="205" width="150" height="18" rx="9" fill="#111827"/>
  <rect x="202" y="260" width="210" height="14" rx="7" fill="#cbd5e1"/>
  <rect x="202" y="310" width="190" height="14" rx="7" fill="#cbd5e1"/>
  <rect x="202" y="360" width="225" height="14" rx="7" fill="#cbd5e1"/>
  <rect x="202" y="430" width="150" height="42" rx="12" fill="#edf7f6"/>
  <rect x="575" y="168" width="90" height="330" rx="18" fill="#007a78"/>
  <rect x="705" y="258" width="90" height="240" rx="18" fill="#f15a4a"/>
  <rect x="835" y="218" width="90" height="280" rx="18" fill="#0f9f6e"/>
  <text x="575" y="540" fill="#64748b" font-family="Arial, sans-serif" font-size="22">Tools</text>
  <text x="700" y="540" fill="#64748b" font-family="Arial, sans-serif" font-size="22">Travel</text>
  <text x="827" y="540" fill="#64748b" font-family="Arial, sans-serif" font-size="22">Ops</text>
</svg>
